<svg width="264" height="105" viewBox="0 0 264 105" fill="none" xmlns="http://www.w3.org/2000/svg">
    <g clip-path="url(#clip0_64_36)">
        <path d="M51.6221 67.5683V92.5239C48.2045 92.5239 45.4573 89.7566 45.4573 86.2578V67.5683C45.4573 62.9372 41.7012 59.2134 37.1072 59.2134C32.5657 59.2697 28.9248 63.0533 28.9248 67.6843V92.5275H22.7041V67.5683C22.7041 62.9372 19.0039 59.2134 14.41 59.2134C9.8684 59.2697 6.22748 63.0533 6.22748 67.6843V86.2613C6.22748 89.7636 3.42435 92.5275 0.00684155 92.5275V67.5683C-0.00014008 59.4947 6.50325 53 14.4623 53C19.0597 53 23.151 55.145 25.8424 58.5348C28.4745 55.145 32.5657 53 37.1631 53C45.178 53 51.6255 59.4947 51.6255 67.5683H51.6221Z" fill="#0273EA"/>
        <path d="M81.2732 65.4796V91.5077C81.2732 91.8453 81.2732 92.1864 81.2173 92.5239V92.8615C81.2173 93.0303 81.1615 93.1991 81.1615 93.3714C81.1615 93.4276 81.1615 93.4839 81.1056 93.5402V93.709L81.0498 93.8777V94.0465C80.9939 94.3278 80.9381 94.6127 80.8822 94.8377C80.8264 94.894 80.8264 94.9502 80.8264 95.0065V95.0628C80.7705 95.119 80.7705 95.2315 80.7147 95.2878C80.7147 95.4566 80.6588 95.6254 80.603 95.7977C80.5471 95.9102 80.4913 96.0227 80.4913 96.1352C80.4354 96.2478 80.3795 96.3603 80.3795 96.4166C80.3237 96.4728 80.3237 96.5291 80.2678 96.5853C80.212 96.8104 80.1003 97.0354 79.9886 97.264C79.9886 97.3203 79.9327 97.3765 79.9327 97.3765C79.821 97.6016 79.7093 97.8266 79.5976 98.0552C79.5418 98.1114 79.5418 98.1677 79.4859 98.224C79.43 98.3365 79.3183 98.5053 79.2625 98.6178C79.2066 98.6741 79.2066 98.7303 79.1508 98.7866C79.0949 98.8991 78.9832 99.0679 78.9274 99.1804C78.8715 99.2367 78.8157 99.2367 78.8157 99.2929C78.6481 99.518 78.5364 99.6868 78.3688 99.9153C78.313 99.9153 78.313 99.9716 78.2571 100.028C78.2571 100.084 78.2013 100.084 78.1454 100.14C78.0337 100.309 77.922 100.422 77.8103 100.59C77.7545 100.59 77.7545 100.647 77.6986 100.647C77.6427 100.759 77.531 100.872 77.4752 100.928C77.4193 100.984 77.3635 101.041 77.3635 101.041C77.1401 101.266 76.9167 101.491 76.6339 101.719L76.578 101.776C76.5222 101.832 76.4663 101.888 76.4105 101.888L76.2988 102.001C76.2429 102.057 76.1871 102.113 76.1312 102.113C76.0195 102.226 75.9637 102.282 75.852 102.338C75.7961 102.394 75.7403 102.451 75.6844 102.451L75.5727 102.563C75.4051 102.676 75.2376 102.788 75.1259 102.844C75.07 102.901 75.0142 102.957 74.9583 102.957C74.9211 102.995 74.8838 103.013 74.8466 103.013C74.7349 103.126 74.6232 103.182 74.5115 103.238C74.4556 103.295 74.3998 103.295 74.3439 103.351H74.2881C74.2322 103.407 74.1764 103.407 74.1205 103.463C73.953 103.52 73.8413 103.576 73.7295 103.632C73.6923 103.67 73.6551 103.688 73.6178 103.688C73.5061 103.745 73.3386 103.801 73.2269 103.857C73.171 103.913 73.1152 103.913 73.0593 103.913C73.0035 103.97 72.8918 104.026 72.78 104.082C72.7242 104.082 72.6683 104.082 72.6125 104.138C72.5008 104.138 72.4449 104.195 72.3891 104.195C72.2215 104.251 72.054 104.307 71.8829 104.364C71.827 104.42 71.7712 104.42 71.7153 104.42C71.5478 104.476 71.3802 104.532 71.2685 104.589H71.101C71.0451 104.589 71.0451 104.645 70.9893 104.645H70.8217L70.7658 104.701H70.5424C70.3749 104.757 70.2632 104.757 70.0956 104.814C69.9839 104.814 69.928 104.814 69.8722 104.87H69.5929C69.5371 104.87 69.4254 104.926 69.3695 104.926H68.9227C68.8668 104.982 68.7551 104.982 68.6993 104.982H67.9138C64.1577 104.982 60.8519 103.46 58.3839 101.03C58.3281 100.974 58.2722 100.918 58.2164 100.805C58.1605 100.749 58.1046 100.692 58.0488 100.636H57.9929C57.9929 100.58 57.9371 100.58 57.9371 100.524C57.9371 100.524 57.8812 100.524 57.8812 100.467L62.8138 96.6838H62.8696C62.8696 96.7401 62.9255 96.7401 62.9813 96.7963C62.9813 96.8526 63.0372 96.8526 63.093 96.9088L63.2047 97.0214C63.2606 97.0776 63.3164 97.0776 63.3164 97.1339H63.3723C63.3723 97.1902 63.4281 97.1902 63.484 97.2464C63.484 97.2464 63.5398 97.3027 63.5957 97.3027C63.5957 97.3027 63.5957 97.3589 63.6516 97.3589L63.7074 97.4152C63.8191 97.4715 63.875 97.5277 63.9308 97.584C63.9681 97.584 64.0053 97.6027 64.0425 97.6403C64.1542 97.6965 64.2101 97.7528 64.3218 97.809L64.6569 97.9778C64.7128 98.0341 64.8245 98.0903 64.9362 98.0903C64.992 98.1466 65.0479 98.1466 65.1037 98.2029C65.1596 98.2029 65.2154 98.2029 65.2154 98.2591C65.2713 98.2591 65.383 98.3154 65.4389 98.3154C65.4947 98.3154 65.5506 98.3717 65.6064 98.3717C65.7181 98.4279 65.8298 98.4279 65.8857 98.4842H65.9415C65.9974 98.4842 66.0532 98.4842 66.1091 98.5404H66.2767C66.3325 98.5967 66.3884 98.5967 66.4442 98.5967C66.5001 98.5967 66.5559 98.5967 66.6118 98.653H66.891C66.9469 98.7092 67.0027 98.7092 67.0027 98.7092H67.5089C67.5648 98.7092 67.6206 98.7092 67.6765 98.7655H68.0674C68.1233 98.7092 68.1791 98.7092 68.235 98.7092H68.7377C68.7377 98.7092 68.7935 98.7092 68.8494 98.653H69.1286C69.1845 98.5967 69.2962 98.5967 69.3521 98.5967C69.3521 98.5967 69.4079 98.5967 69.4638 98.5404H69.5196C69.6313 98.5404 69.743 98.4842 69.8547 98.4842C69.9664 98.4279 70.0782 98.3717 70.1899 98.3717C70.2457 98.3717 70.3016 98.3154 70.3016 98.3154C70.3388 98.3154 70.376 98.2966 70.4133 98.2591C70.4505 98.2591 70.4877 98.2404 70.525 98.2029H70.6925V98.1466C70.7298 98.1466 70.767 98.1279 70.8042 98.0903H70.8601C70.9159 98.0903 70.9159 98.0341 70.9718 98.0341H71.0277C71.0649 97.9966 71.1021 97.9591 71.1394 97.9216C71.1952 97.9216 71.2511 97.8653 71.3069 97.8653C71.4186 97.809 71.5303 97.7528 71.5862 97.6965C71.642 97.6403 71.6979 97.6403 71.7537 97.584C71.8096 97.584 71.8654 97.5277 71.9213 97.5277C71.9213 97.4715 71.9772 97.4715 72.033 97.4152C72.0889 97.4152 72.0889 97.3589 72.1447 97.3589C72.1447 97.3027 72.2006 97.3027 72.2006 97.2464C72.2564 97.2464 72.3123 97.1902 72.3123 97.1902C72.3681 97.1339 72.424 97.1339 72.4798 97.0776C72.4798 97.0776 72.5357 97.0214 72.5915 96.9651C72.7591 96.7963 72.9825 96.6275 73.1536 96.4552C73.2094 96.399 73.2094 96.3427 73.2653 96.2864C73.3211 96.2302 73.377 96.1739 73.4328 96.1177V96.0614C73.4887 96.0614 73.4887 96.0051 73.5445 96.0051C73.5445 95.9676 73.5631 95.9301 73.6004 95.8926C73.6004 95.8364 73.6562 95.8364 73.7121 95.7801C73.7679 95.7238 73.7679 95.6676 73.8238 95.6113V95.555C73.8796 95.4988 73.8797 95.4425 73.9355 95.3863C73.9914 95.33 74.0472 95.2737 74.0472 95.2175C74.1031 95.1612 74.1589 95.105 74.1589 94.9924C74.2148 94.9924 74.2148 94.9362 74.2148 94.9362C74.2706 94.8236 74.2706 94.7674 74.3265 94.7111L74.3823 94.6549C74.3823 94.6173 74.4009 94.5798 74.4382 94.5423V94.4298C74.494 94.3735 74.494 94.3173 74.5499 94.261V94.2048C74.5871 94.1673 74.6057 94.1297 74.6057 94.0922C74.6057 94.036 74.6616 93.9235 74.6616 93.8672C74.7174 93.8109 74.7174 93.7547 74.7174 93.6984C74.7733 93.6421 74.7733 93.5859 74.7733 93.5296C74.885 93.192 74.9409 92.851 74.9967 92.5134C75.0526 92.1758 75.1084 91.8347 75.1084 91.4972V90.3684C72.979 91.7222 70.511 92.5134 67.8789 92.5134C65.2469 92.5134 62.723 91.7222 60.6495 90.3684C59.8082 89.8585 59.0227 89.2397 58.3525 88.561C57.3995 87.601 56.5582 86.4723 55.9438 85.231C54.9908 83.3673 54.4288 81.2223 54.4288 78.9648V65.469H60.6495V79.7525C60.6495 79.8088 60.6495 79.865 60.7053 79.9213V80.2026C60.7053 80.2589 60.7612 80.2589 60.7612 80.3151C60.7612 80.4276 60.7612 80.4839 60.817 80.5964V80.7652C60.8729 80.7652 60.8729 80.8215 60.8729 80.8777C60.8729 80.934 60.8729 80.9903 60.9287 80.9903V81.1591C60.9846 81.2153 60.9846 81.2716 60.9846 81.3278C61.0404 81.3841 61.0404 81.4404 61.0963 81.4966C61.0963 81.5529 61.0963 81.6091 61.1521 81.6654C61.1521 81.7217 61.1521 81.7779 61.208 81.8342C61.2638 81.9467 61.2638 82.0592 61.3197 82.1718C61.3755 82.1718 61.3755 82.228 61.4314 82.2843C61.4314 82.3405 61.4314 82.3968 61.4872 82.3968V82.4531C61.5431 82.5656 61.599 82.6781 61.6548 82.7906C61.7107 82.7906 61.7107 82.8469 61.7665 82.9032C61.7665 82.9594 61.8224 83.0157 61.8782 83.072C61.8782 83.072 61.9341 83.1282 61.9341 83.1845C62.0458 83.297 62.1016 83.4095 62.2133 83.522C62.2692 83.5783 62.2692 83.6346 62.325 83.6346C62.325 83.6908 62.3809 83.7471 62.3809 83.7471C62.4926 83.8596 62.6043 83.9721 62.6602 84.0847L62.8277 84.2535C62.8836 84.3097 62.9394 84.3097 62.9953 84.366L63.1628 84.5348C63.2187 84.591 63.3304 84.6473 63.3863 84.7035C63.4421 84.7035 63.4421 84.7598 63.498 84.8161C63.5352 84.8161 63.5724 84.8348 63.6097 84.8723C63.6097 84.8723 63.6655 84.9286 63.7214 84.9286C63.7214 84.9286 63.7214 84.9849 63.7772 84.9849C63.8331 85.0411 63.8889 85.0411 63.8889 85.0974H63.9448C64.0006 85.1536 64.0565 85.1536 64.1123 85.2099C64.1682 85.2662 64.2799 85.3224 64.3358 85.3224C64.373 85.3599 64.4102 85.3787 64.4475 85.3787C64.615 85.4912 64.7826 85.5475 64.9536 85.66C65.0095 85.66 65.0653 85.66 65.0653 85.7163C65.1212 85.7163 65.2329 85.7725 65.2887 85.7725C65.3446 85.8288 65.4005 85.8288 65.4005 85.8288C65.5122 85.885 65.6797 85.9413 65.7914 85.9413C65.8287 85.9413 65.8473 85.9601 65.8473 85.9976H66.0707C66.0707 86.0538 66.1265 86.0538 66.1824 86.0538H66.2383C66.2941 86.0538 66.35 86.1101 66.4058 86.1101H66.5734C66.6292 86.1664 66.6851 86.1664 66.6851 86.1664C66.8526 86.1664 66.9643 86.2226 67.1319 86.2226H68.5317C68.6993 86.2226 68.811 86.1664 68.9785 86.1664C69.0158 86.1664 69.053 86.1476 69.0902 86.1101H69.3137C69.3137 86.1101 69.3695 86.0538 69.4254 86.0538H69.4812C69.5371 86.0538 69.5929 86.0538 69.6488 85.9976H69.8163C69.8163 85.9413 69.8722 85.9413 69.8722 85.9413C69.9839 85.9413 70.1515 85.885 70.2632 85.8288C70.3004 85.8288 70.3376 85.81 70.3749 85.7725C70.4307 85.7725 70.5424 85.7163 70.5983 85.7163C70.5983 85.66 70.6541 85.66 70.71 85.66C70.8775 85.5475 71.0451 85.4912 71.2127 85.3787C71.2499 85.3787 71.2871 85.3599 71.3244 85.3224C71.3802 85.3224 71.4919 85.2662 71.5478 85.2099C71.6036 85.1536 71.6595 85.1536 71.7153 85.0974H71.7712L71.8829 84.9849C71.9201 84.9849 71.9388 84.9661 71.9388 84.9286C71.9946 84.9286 72.0505 84.8723 72.0505 84.8723C72.1063 84.8723 72.1063 84.8161 72.1063 84.8161C72.1622 84.8161 72.1622 84.7598 72.218 84.7598L72.2739 84.7035H72.3297C72.3856 84.6473 72.3856 84.591 72.4414 84.591C72.4973 84.5348 72.5531 84.4785 72.609 84.4222C72.6648 84.366 72.7207 84.366 72.7207 84.3097C72.7766 84.2535 72.8883 84.1972 72.9441 84.1409C72.9441 84.0847 73 84.0284 73.0558 84.0284C73.0558 83.9721 73.1117 83.9721 73.1117 83.9159L73.2234 83.8034L73.2792 83.7471C73.3165 83.7096 73.3537 83.6721 73.3909 83.6346V83.5783C73.5026 83.522 73.5585 83.4095 73.6143 83.3533C73.6702 83.297 73.6702 83.2407 73.7261 83.1845C73.7261 83.1282 73.7819 83.072 73.8378 83.072L74.0053 82.7344C74.0053 82.6781 74.0612 82.6781 74.0612 82.6219C74.117 82.5656 74.117 82.5093 74.1729 82.4531C74.2287 82.3405 74.2846 82.228 74.3404 82.1155L74.3963 81.9467C74.4335 81.9092 74.4521 81.8717 74.4521 81.8342L74.508 81.7779V81.6654L74.5639 81.6091V81.5529L74.7314 81.0465C74.7686 81.009 74.7873 80.9715 74.7873 80.934V80.8215H74.8431V80.6527L74.9548 80.2589V80.0338C75.0107 79.6962 75.0665 79.3552 75.0665 78.9613V65.4655H81.2313L81.2732 65.4796Z" fill="white"/>
        <path d="M121.24 92.5239C116.642 92.5239 112.551 90.379 109.919 86.9892C107.227 90.3754 103.136 92.5239 98.5388 92.5239C90.5797 92.5239 84.0763 86.0292 84.0763 77.9556V53C87.4938 53 90.297 55.7674 90.297 59.2099V77.8431C90.297 82.4179 93.9414 86.2543 98.4794 86.2543C103.077 86.3105 106.774 82.5832 106.774 77.9556V53H112.994V77.8431C112.994 82.4179 116.639 86.2543 121.177 86.2543C125.774 86.3105 129.527 82.5832 129.527 77.9556V59.2099C129.527 55.7674 132.274 53 135.692 53V77.9556C135.692 86.0292 129.244 92.5239 121.229 92.5239H121.24Z" fill="#0273EA"/>
        <path d="M165.35 78.9719V92.5239H161.258C160.082 92.5239 159.185 91.564 159.185 90.379C157.055 91.7328 154.587 92.5239 151.955 92.5239C148.199 92.5239 144.893 90.9978 142.425 88.5715C140.017 86.089 138.502 82.7555 138.502 78.9719C138.502 71.577 144.555 65.4761 151.899 65.4761C155.656 65.4761 159.017 67.0022 161.429 69.4285C163.615 71.6297 165.074 74.6221 165.297 77.9556C165.353 78.2932 165.353 78.6343 165.353 78.9719H165.35ZM159.185 79.1406C159.185 77.0519 158.399 75.1883 157.055 73.8345C155.711 72.5369 153.917 71.6895 151.955 71.6895C149.993 71.6895 148.143 72.5369 146.799 73.8345C145.511 75.1883 144.726 76.9957 144.726 78.9719C144.726 80.9481 145.511 82.8117 146.799 84.1655C148.143 85.5193 149.993 86.3105 152.067 86.2543C155.935 86.198 159.073 83.0368 159.185 79.1406Z" fill="white"/>
        <path d="M178.468 92.4677C175.777 92.2426 173.312 91.0014 171.462 89.1939C169.444 87.1052 168.156 84.2253 168.156 81.0641V53H174.377V81.0606C174.377 81.4544 174.377 81.7955 174.433 82.1331C174.656 83.1493 175.162 84.053 175.888 84.7317C176.562 85.4666 177.459 85.9729 178.468 86.198V92.4642V92.4677Z" fill="white"/>
        <path d="M191.583 92.4677C188.892 92.2426 186.427 91.0014 184.577 89.1939C182.559 87.1052 181.271 84.2253 181.271 81.0641V53H187.492V81.0606C187.492 81.4544 187.492 81.7955 187.548 82.1331C187.771 83.1493 188.277 84.053 189.003 84.7317C189.677 85.4666 190.574 85.9729 191.583 86.198V92.4642V92.4677Z" fill="white"/>
        <path d="M212.88 84.2218C215.628 86.3105 214.898 90.7165 211.648 91.789C210.304 92.2391 209.013 92.5239 207.836 92.5239C204.08 92.5239 200.774 90.9978 198.306 88.5715C195.898 86.089 194.383 82.7555 194.383 78.9719C194.383 71.577 200.436 65.4761 207.78 65.4761C211.536 65.4761 214.898 67.0022 217.31 69.4285C219.722 71.8547 221.234 75.2445 221.234 78.9719V79.0281C221.234 80.1569 220.281 81.0606 219.16 81.0606H200.886C201.221 82.2456 201.839 83.3181 202.68 84.1655C204.024 85.4631 205.819 86.2543 207.836 86.2543C209.854 86.2543 211.537 85.4631 212.88 84.2218ZM200.886 76.9394H214.731C214.395 75.7544 213.778 74.6819 212.936 73.8345C211.592 72.5369 209.798 71.6895 207.836 71.6895C205.874 71.6895 204.024 72.5369 202.68 73.8345C201.839 74.6819 201.225 75.7544 200.886 76.9394Z" fill="white"/>
        <path d="M230.258 77.9556V81.0606C230.258 81.4544 230.258 81.7955 230.314 82.1331C230.537 83.1493 231.043 84.053 231.769 84.7317C232.443 85.4666 233.34 85.973 234.349 86.198V92.4642C231.658 92.2391 229.193 90.9978 227.343 89.1904C225.325 87.1017 224.037 84.2218 224.037 81.0606V53H227.12C228.858 53 230.258 54.4101 230.258 56.1049V65.4761H234.349V71.686H230.258V77.9521V77.9556Z" fill="white"/>
        <path d="M264 65.4796V91.5077C264 91.8453 264 92.1864 263.944 92.5239V92.8615C263.944 93.0303 263.888 93.1991 263.888 93.3714C263.888 93.4276 263.888 93.4839 263.832 93.5402V93.709L263.777 93.8777V94.0465C263.721 94.3278 263.665 94.6127 263.609 94.8377C263.553 94.894 263.553 94.9502 263.553 95.0065V95.0628C263.497 95.119 263.497 95.2315 263.441 95.2878C263.441 95.4566 263.386 95.6254 263.33 95.7977C263.274 95.9102 263.218 96.0227 263.218 96.1352C263.162 96.2478 263.106 96.3603 263.106 96.4166C263.05 96.4728 263.05 96.5291 262.995 96.5853C262.939 96.8104 262.827 97.0354 262.715 97.264C262.715 97.3203 262.66 97.3765 262.66 97.3765C262.548 97.6016 262.436 97.8266 262.324 98.0552C262.269 98.1114 262.269 98.1677 262.213 98.224C262.157 98.3365 262.045 98.5053 261.989 98.6178C261.933 98.6741 261.933 98.7303 261.878 98.7866C261.822 98.8991 261.71 99.0679 261.654 99.1804C261.598 99.2367 261.542 99.2367 261.542 99.2929C261.375 99.518 261.263 99.6868 261.096 99.9153C261.04 99.9153 261.04 99.9716 260.984 100.028C260.984 100.084 260.928 100.084 260.872 100.14C260.761 100.309 260.649 100.422 260.537 100.59C260.481 100.59 260.481 100.647 260.425 100.647C260.37 100.759 260.258 100.872 260.202 100.928C260.146 100.984 260.09 101.041 260.09 101.041C259.867 101.266 259.643 101.491 259.361 101.719L259.305 101.776C259.249 101.832 259.193 101.888 259.137 101.888C259.081 101.944 259.026 102.001 259.026 102.001C258.97 102.057 258.914 102.113 258.858 102.113C258.746 102.226 258.69 102.282 258.579 102.338C258.523 102.394 258.467 102.451 258.411 102.451L258.299 102.563C258.132 102.676 257.964 102.788 257.849 102.844C257.793 102.901 257.737 102.957 257.682 102.957C257.644 102.995 257.607 103.013 257.57 103.013C257.458 103.126 257.346 103.182 257.235 103.238C257.179 103.295 257.123 103.295 257.067 103.351H257.011C256.956 103.407 256.9 103.407 256.844 103.463C256.676 103.52 256.565 103.576 256.453 103.632C256.416 103.67 256.378 103.688 256.341 103.688C256.229 103.745 256.062 103.801 255.95 103.857C255.894 103.913 255.838 103.913 255.783 103.913C255.727 103.97 255.615 104.026 255.503 104.082C255.447 104.082 255.392 104.082 255.336 104.138C255.224 104.138 255.168 104.195 255.112 104.195C254.945 104.251 254.777 104.307 254.606 104.364C254.55 104.42 254.494 104.42 254.439 104.42C254.271 104.476 254.104 104.532 253.992 104.589H253.824C253.768 104.589 253.768 104.645 253.713 104.645H253.545L253.489 104.701H253.266C253.098 104.757 252.986 104.757 252.815 104.814C252.704 104.814 252.648 104.814 252.592 104.87H252.313C252.257 104.87 252.145 104.926 252.089 104.926H251.639C251.583 104.982 251.471 104.982 251.416 104.982H250.63C246.874 104.982 243.568 103.46 241.1 101.03C241.044 100.974 240.989 100.918 240.933 100.805C240.877 100.749 240.821 100.692 240.765 100.636H240.709C240.709 100.58 240.653 100.58 240.653 100.524C240.653 100.524 240.598 100.524 240.598 100.467L245.53 96.6838H245.586C245.586 96.7401 245.642 96.7401 245.698 96.7963C245.698 96.8526 245.753 96.8526 245.809 96.9088L245.921 97.0214C245.977 97.0776 246.033 97.0776 246.033 97.1339H246.089C246.089 97.1902 246.144 97.1902 246.2 97.2464C246.2 97.2464 246.256 97.3027 246.312 97.3027C246.312 97.3027 246.312 97.3589 246.368 97.3589L246.424 97.4152C246.535 97.4715 246.591 97.5277 246.647 97.584C246.684 97.584 246.722 97.6027 246.759 97.6403C246.871 97.6965 246.926 97.7528 247.038 97.809C247.15 97.8653 247.262 97.9216 247.373 97.9778C247.429 98.0341 247.541 98.0903 247.652 98.0903C247.708 98.1466 247.764 98.1466 247.82 98.2029C247.876 98.2029 247.932 98.2029 247.932 98.2591C247.988 98.2591 248.099 98.3154 248.155 98.3154C248.211 98.3154 248.267 98.3717 248.323 98.3717C248.434 98.4279 248.546 98.4279 248.602 98.4842H248.658C248.714 98.4842 248.77 98.4842 248.825 98.5404H248.993C249.049 98.5967 249.105 98.5967 249.161 98.5967C249.216 98.5967 249.272 98.5967 249.328 98.653H249.607C249.663 98.7092 249.719 98.7092 249.719 98.7092H250.225C250.281 98.7092 250.337 98.7092 250.393 98.7655H250.784C250.84 98.7092 250.895 98.7092 250.951 98.7092H251.457C251.457 98.7092 251.513 98.7092 251.569 98.653H251.848C251.904 98.5967 252.016 98.5967 252.072 98.5967C252.072 98.5967 252.128 98.5967 252.184 98.5404H252.239C252.351 98.5404 252.463 98.4842 252.575 98.4842C252.686 98.4279 252.798 98.3717 252.91 98.3717C252.966 98.3717 253.021 98.3154 253.021 98.3154C253.059 98.3154 253.096 98.2966 253.133 98.2591C253.17 98.2591 253.208 98.2404 253.245 98.2029H253.412V98.1466C253.45 98.1466 253.487 98.1279 253.524 98.0903H253.58C253.636 98.0903 253.636 98.0341 253.692 98.0341H253.747C253.785 97.9966 253.822 97.9591 253.859 97.9216C253.915 97.9216 253.971 97.8653 254.027 97.8653C254.138 97.809 254.25 97.7528 254.306 97.6965C254.362 97.6403 254.418 97.6403 254.474 97.584C254.529 97.584 254.585 97.5277 254.641 97.5277C254.641 97.4715 254.697 97.4715 254.753 97.4152C254.809 97.4152 254.809 97.3589 254.865 97.3589C254.865 97.3027 254.92 97.3027 254.92 97.2464C254.976 97.2464 255.032 97.1902 255.032 97.1902C255.088 97.1339 255.144 97.1339 255.2 97.0776C255.2 97.0776 255.255 97.0214 255.311 96.9651C255.479 96.7963 255.702 96.6275 255.873 96.4552C255.929 96.399 255.929 96.3427 255.985 96.2864C256.041 96.2302 256.097 96.1739 256.153 96.1177V96.0614C256.208 96.0614 256.208 96.0051 256.264 96.0051C256.264 95.9676 256.283 95.9301 256.32 95.8926C256.32 95.8364 256.376 95.8364 256.432 95.7801C256.488 95.7238 256.488 95.6676 256.544 95.6113V95.555C256.599 95.4988 256.599 95.4425 256.655 95.3863C256.711 95.33 256.767 95.2737 256.767 95.2175C256.823 95.1612 256.879 95.105 256.879 94.9924C256.935 94.9924 256.935 94.9362 256.935 94.9362C256.99 94.8236 256.99 94.7674 257.046 94.7111L257.102 94.6549C257.102 94.6173 257.121 94.5798 257.158 94.5423V94.4298C257.214 94.3735 257.214 94.3173 257.27 94.261V94.2048C257.307 94.1673 257.326 94.1297 257.326 94.0922C257.326 94.036 257.381 93.9235 257.381 93.8672C257.437 93.8109 257.437 93.7547 257.437 93.6984C257.493 93.6421 257.493 93.5859 257.493 93.5296C257.605 93.192 257.661 92.851 257.717 92.5134C257.772 92.1758 257.828 91.8347 257.828 91.4972V90.3684C255.699 91.7222 253.231 92.5134 250.599 92.5134C247.967 92.5134 245.443 91.7222 243.369 90.3684C242.528 89.8585 241.743 89.2397 241.072 88.561C240.119 87.601 239.278 86.4723 238.664 85.231C237.711 83.3673 237.149 81.2223 237.149 78.9648V65.469H243.369V79.7525C243.369 79.8088 243.369 79.865 243.425 79.9213V80.2026C243.425 80.2589 243.481 80.2589 243.481 80.3151C243.481 80.4276 243.481 80.4839 243.537 80.5964V80.7652C243.593 80.7652 243.593 80.8215 243.593 80.8777C243.593 80.934 243.593 80.9903 243.649 80.9903V81.1591C243.704 81.2153 243.704 81.2716 243.704 81.3278C243.76 81.3841 243.76 81.4404 243.816 81.4966C243.816 81.5529 243.816 81.6091 243.872 81.6654C243.872 81.7217 243.872 81.7779 243.928 81.8342C243.984 81.9467 243.984 82.0592 244.04 82.1718C244.095 82.1718 244.095 82.228 244.151 82.2843C244.151 82.3405 244.151 82.3968 244.207 82.3968V82.4531C244.263 82.5656 244.319 82.6781 244.375 82.7906C244.43 82.7906 244.43 82.8469 244.486 82.9032C244.486 82.9594 244.542 83.0157 244.598 83.072C244.598 83.072 244.654 83.1282 244.654 83.1845C244.766 83.297 244.821 83.4095 244.933 83.522C244.989 83.5783 244.989 83.6346 245.045 83.6346C245.045 83.6908 245.101 83.7471 245.101 83.7471C245.212 83.8596 245.324 83.9721 245.38 84.0847L245.548 84.2535C245.603 84.3097 245.659 84.3097 245.715 84.366L245.883 84.5348C245.939 84.591 246.05 84.6473 246.106 84.7035C246.162 84.7035 246.162 84.7598 246.218 84.8161C246.255 84.8161 246.292 84.8348 246.329 84.8723C246.329 84.8723 246.385 84.9286 246.441 84.9286C246.441 84.9286 246.441 84.9849 246.497 84.9849C246.553 85.0411 246.609 85.0411 246.609 85.0974H246.665C246.72 85.1536 246.776 85.1536 246.832 85.2099C246.888 85.2662 247 85.3224 247.056 85.3224C247.093 85.3599 247.13 85.3787 247.167 85.3787C247.335 85.4912 247.502 85.5475 247.673 85.66C247.729 85.66 247.785 85.66 247.785 85.7163C247.841 85.7163 247.953 85.7725 248.009 85.7725C248.064 85.8288 248.12 85.8288 248.12 85.8288C248.232 85.885 248.4 85.9413 248.511 85.9413C248.548 85.9413 248.567 85.9601 248.567 85.9976H248.791C248.791 86.0538 248.846 86.0538 248.902 86.0538H248.958C249.014 86.0538 249.07 86.1101 249.126 86.1101H249.293C249.349 86.1664 249.405 86.1664 249.405 86.1664C249.572 86.1664 249.684 86.2226 249.852 86.2226H251.252C251.419 86.2226 251.531 86.1664 251.698 86.1664C251.736 86.1664 251.773 86.1476 251.81 86.1101H252.033C252.033 86.1101 252.089 86.0538 252.145 86.0538H252.201C252.257 86.0538 252.313 86.0538 252.369 85.9976H252.536C252.536 85.9413 252.592 85.9413 252.592 85.9413C252.704 85.9413 252.871 85.885 252.983 85.8288C253.02 85.8288 253.057 85.81 253.095 85.7725C253.151 85.7725 253.262 85.7163 253.318 85.7163C253.318 85.66 253.374 85.66 253.43 85.66C253.597 85.5475 253.765 85.4912 253.936 85.3787C253.973 85.3787 254.01 85.3599 254.048 85.3224C254.104 85.3224 254.215 85.2662 254.271 85.2099C254.327 85.1536 254.383 85.1536 254.439 85.0974H254.494C254.532 85.0599 254.569 85.0224 254.606 84.9849C254.643 84.9849 254.662 84.9661 254.662 84.9286C254.718 84.9286 254.774 84.8723 254.774 84.8723C254.83 84.8723 254.83 84.8161 254.83 84.8161C254.885 84.8161 254.885 84.7598 254.941 84.7598L254.997 84.7035H255.053C255.109 84.6473 255.109 84.591 255.165 84.591C255.221 84.5348 255.276 84.4785 255.332 84.4222C255.388 84.366 255.444 84.366 255.444 84.3097C255.5 84.2535 255.612 84.1972 255.667 84.1409C255.667 84.0847 255.723 84.0284 255.779 84.0284C255.779 83.9721 255.835 83.9721 255.835 83.9159C255.872 83.8784 255.909 83.8409 255.947 83.8034L256.003 83.7471C256.04 83.7096 256.077 83.6721 256.114 83.6346V83.5783C256.226 83.522 256.282 83.4095 256.338 83.3533C256.394 83.297 256.394 83.2407 256.449 83.1845C256.449 83.1282 256.505 83.072 256.561 83.072L256.729 82.7344C256.729 82.6781 256.784 82.6781 256.784 82.6219C256.84 82.5656 256.84 82.5093 256.896 82.4531C256.952 82.3405 257.008 82.228 257.064 82.1155L257.12 81.9467C257.157 81.9092 257.175 81.8717 257.175 81.8342L257.231 81.7779V81.6654L257.287 81.6091V81.5529L257.455 81.0465C257.492 81.009 257.511 80.9715 257.511 80.934V80.8215H257.566V80.6527L257.678 80.2589V80.0338C257.734 79.6962 257.79 79.3552 257.79 78.9613V65.4655H263.955L264 65.4796Z" fill="white"/>
    </g>
    <circle cx="131.5" cy="20.5" r="19" stroke="white" stroke-width="3"/>
    <path d="M120.205 21.995H124.705C124.705 23.845 126.205 24.695 131.905 24.695C136.63 24.695 138.055 24.17 138.055 22.795C138.055 21.345 137.055 21.095 131.38 20.82C123.755 20.47 120.73 19.27 120.73 15.345C120.73 11.495 124.655 10.27 131.205 10.27C137.805 10.27 141.805 11.92 141.805 16.245H137.305C137.305 14.32 135.38 13.845 130.705 13.845C126.28 13.845 125.23 14.27 125.23 15.57C125.23 16.92 126.28 17.17 131.38 17.47C138.28 17.845 142.555 18.22 142.555 22.645C142.555 27.32 138.13 28.27 131.655 28.27C124.48 28.27 120.205 27.045 120.205 21.995Z" fill="#0273EA"/>
    <line x1="128" y1="34" x2="128" y2="25" stroke="#0273EA" stroke-width="2"/>
    <path d="M133 18.5L133 8" stroke="#0273EA" stroke-width="2"/>
    <defs>
    <clipPath id="clip0_64_36">
        <rect width="264" height="52" fill="white" transform="translate(0 53)"/>
    </clipPath>
    </defs>
</svg>    